#!OML:ASF H:\MichaelJackson\Top Level 1\Subject 1\Session 1\male.ASF
:FULLY-SPECIFIED
:DEGREES
72
root -12.3728 16.8503 -34.6083 10.2901 -2.21213 1.83614
lowerback -9.02539 2.57936 -9.5889
upperback 1.85336 4.55408 -0.0463549
thorax 6.31204 1.87224 5.96138
lowerneck -6.03139 -0.729588 2.30005
upperneck -5.27144 -1.19221 -3.73714
head -0.66122 -0.624036 -1.56045
rclavicle -1.67973e-014 7.55382e-015
rhumerus -35.9885 2.80218 -94.5064
rradius 37.3395
rwrist 9.05302
rhand -31.938 -22.7478
rfingers 7.12502
rthumb -5.18891 -52.6642
lclavicle -1.67973e-014 7.55382e-015
lhumerus -34.2858 -20.9078 98.1992
lradius 39.6641
lwrist 4.46177
lhand -2.71688 13.4532
lfingers 7.12502
lthumb 22.9857 42.1028
rfemur -27.4563 -2.04776 17.6939
rtibia 44.5946
rfoot -29.2467 -18.251
rtoes -2.92111
lfemur -26.8703 6.53667 -24.1467
ltibia 38.1386
lfoot -32.2606 -7.12341
ltoes 48.6238
73
root -12.3669 16.8541 -34.5954 10.2234 -2.04533 1.8941
lowerback -9.12322 2.51733 -9.46081
upperback 1.87713 4.47168 -0.0856731
thorax 6.41928 1.83036 5.84646
lowerneck -6.19398 -0.723014 2.30676
upperneck -5.15565 -1.18356 -3.751
head -0.598033 -0.621952 -1.5668
rclavicle 8.89561e-015 3.37934e-014
rhumerus -35.9818 2.90717 -94.5753
rradius 37.2777
rwrist 9.04253
rhand -31.8156 -22.604
rfingers 7.12502
rthumb -5.07069 -52.5234
lclavicle 8.89561e-015 3.37934e-014
lhumerus -34.171 -20.5864 98.0413
lradius 39.558
lwrist 4.35688
lhand -2.65738 13.9728
lfingers 7.12502
lthumb 23.0427 42.6152
rfemur -27.0628 -1.76849 17.5415
rtibia 44.195
rfoot -29.0414 -18.7602
rtoes -3.91566
lfemur -26.687 6.38462 -24.1991
ltibia 38.0517
lfoot -32.2567 -7.11815
ltoes 48.5894
74
root -12.3632 16.8614 -34.5831 10.1297 -1.90614 1.79361
lowerback -9.19686 2.4826 -9.20547
upperback 1.91794 4.40572 -0.0774406
thorax 6.53233 1.80008 5.71177
lowerneck -6.42217 -0.677409 2.27656
upperneck -4.91484 -1.11779 -3.73923
head -0.48285 -0.592012 -1.55821
rclavicle -1.11816e-015 4.37326e-015
rhumerus -35.9507 3.06322 -94.6714
rradius 37.2688
rwrist 8.92682
rhand -31.6398 -22.5638
rfingers 7.12502
rthumb -4.90093 -52.4871
lclavicle -1.11816e-015 4.37326e-015
lhumerus -34.0905 -20.2342 97.8791
lradius 39.5068
lwrist 4.22584
lhand -3.08751 13.6335
lfingers 7.12502
lthumb 22.63 42.3268
rfemur -26.6506 -1.68137 17.6164
rtibia 43.7433
rfoot -28.8816 -19.117
rtoes -4.49294
lfemur -26.4573 6.26174 -24.0608
ltibia 37.9293
lfoot -32.2546 -7.09728
ltoes 48.584
75
root -12.36 16.8688 -34.5749 10.0965 -1.76749 1.62485
lowerback -9.23835 2.45597 -8.88127
upperback 1.92175 4.33534 -0.0553787
thorax 6.59054 1.77473 5.54877
lowerneck -6.71473 -0.62958 2.24745
upperneck -4.61143 -1.04852 -3.73694
head -0.337649 -0.561315 -1.55347
rclavicle 1.51076e-014 1.21259e-014
rhumerus -35.9007 3.22005 -94.7694
rradius 37.1825
rwrist 8.86497
rhand -31.5072 -22.4146
rfingers 7.12502
rthumb -4.7729 -52.3408
lclavicle 1.51076e-014 1.21259e-014
lhumerus -33.9634 -19.8802 97.6925
lradius 39.4091
lwrist 4.14079
lhand -3.12588 13.1076
lfingers 7.12502
lthumb 22.5932 41.8055
rfemur -26.3225 -1.61997 17.7835
rtibia 43.2863
rfoot -29.0238 -19.0983
rtoes -3.26426
lfemur -26.3237 6.20442 -23.8598
ltibia 37.8331
lfoot -32.2242 -7.13859
ltoes 48.6641
76
root -12.3537 16.8771 -34.5632 10.0436 -1.58817 1.60963
lowerback -9.35671 2.40668 -8.6462
upperback 1.96019 4.25803 -0.0817773
thorax 6.72877 1.73809 5.3894
lowerneck -6.94699 -0.593287 2.19323
upperneck -4.40044 -0.993268 -3.67811
head -0.231415 -0.536045 -1.52607
rclavicle -2.1419e-014 -6.36111e-015
rhumerus -35.8337 3.36591 -94.8459
rradius 37.198
rwrist 8.61117
rhand -31.1709 -22.2758
rfingers 7.12502
rthumb -4.44814 -52.2091
lclavicle -2.1419e-014 -6.36111e-015
lhumerus -33.8649 -19.6439 97.5615
lradius 39.3545
lwrist 4.19189
lhand -3.16404 13.3112
lfingers 7.12502
lthumb 22.5565 42.0135
rfemur -25.9398 -1.68106 17.7871
rtibia 42.8308
rfoot -29.3047 -19.0116
rtoes -1.88068
lfemur -26.1534 6.02363 -23.8315
ltibia 37.7404
lfoot -32.2325 -7.12601
ltoes 48.7102
77
root -12.3502 16.8811 -34.5522 9.95954 -1.43399 1.44803
lowerback -9.43539 2.37497 -8.30452
upperback 1.99824 4.1835 -0.0629741
thorax 6.84593 1.70793 5.2158
lowerneck -7.17399 -0.551003 2.16075
upperneck -4.18473 -0.931731 -3.64377
head -0.124637 -0.507946 -1.51037
rclavicle 3.49861e-014 9.93923e-016
rhumerus -35.7581 3.49806 -94.9441
rradius 37.0747
rwrist 8.64385
rhand -31.042 -22.1296
rfingers 7.12502
rthumb -4.32373 -52.0654
lclavicle 3.49861e-014 9.93923e-016
lhumerus -33.8004 -19.324 97.4084
lradius 39.2833
lwrist 4.13173
lhand -3.21333 13.6274
lfingers 7.12502
lthumb 22.5092 42.3354
rfemur -25.5181 -1.90224 18.0053
rtibia 42.3829
rfoot -29.4952 -18.937
rtoes -0.943797
lfemur -25.9677 5.91319 -23.6266
ltibia 37.688
lfoot -32.2382 -7.12972
ltoes 48.803
78
root -12.3458 16.8872 -34.5408 9.89165 -1.26676 1.28754
lowerback -9.50307 2.34801 -7.94075
upperback 2.01991 4.11014 -0.048248
thorax 6.9399 1.68148 5.02392
lowerneck -7.37034 -0.518332 2.11489
upperneck -4.01394 -0.882592 -3.60213
head -0.0372518 -0.485252 -1.48997
rclavicle -1.28962e-014 1.41137e-014
rhumerus -35.6927 3.65603 -95.0304
rradius 36.8965
rwrist 8.89278
rhand -30.9878 -21.8623
rfingers 7.12502
rthumb -4.2714 -51.7992
lclavicle -1.28962e-014 1.41137e-014
lhumerus -33.7646 -19.0427 97.2711
lradius 39.2562
lwrist 4.13465
lhand -3.32881 13.6763
lfingers 7.12502
lthumb 22.3984 42.3978
rfemur -25.1263 -2.16593 18.2342
rtibia 41.9353
rfoot -29.713 -18.9423
rtoes -0.56685
lfemur -25.8078 5.84067 -23.4341
ltibia 37.6388
lfoot -32.2571 -7.20657
ltoes 48.8498
